<?xml version="1.0" encoding="UTF-8" standalone="no"?><!DOCTYPE svg PUBLIC "-//W3C//DTD SVG 1.1//EN" "http://www.w3.org/Graphics/SVG/1.1/DTD/svg11.dtd"><svg width="100%" height="100%" viewBox="0 0 240 240" version="1.1" xmlns="http://www.w3.org/2000/svg" xmlns:xlink="http://www.w3.org/1999/xlink" xml:space="preserve" xmlns:serif="http://www.serif.com/" style="fill-rule:evenodd;clip-rule:evenodd;stroke-linejoin:round;stroke-miterlimit:2;"><rect id="logo-3.6" serif:id="logo 3.6" x="0" y="0" width="240" height="240" style="fill:none;"/><clipPath id="_clip1"><rect x="0" y="0" width="240" height="240"/></clipPath><g clip-path="url(#_clip1)"><path d="M117.743,219.399l-0.173,-7.273c-6.402,-0.652 -12.639,-1.807 -18.664,-3.419c-11.846,-3.17 -22.871,-8.111 -32.714,-14.489c-10.206,-6.614 -19.14,-14.773 -26.395,-24.105l8.263,0c-2.601,-3.124 -5,-6.402 -7.179,-9.815c-4.758,-7.457 -8.463,-15.563 -10.924,-24.139l-7.305,0.004c-0.885,-3.217 -1.603,-6.495 -2.144,-9.826c-0.285,-1.756 -0.522,-3.527 -0.707,-5.312l-0.026,0c-0.317,-3.119 -0.479,-6.279 -0.479,-9.473c0,-3.118 0.154,-6.204 0.456,-9.25c5.11,-51.557 52.504,-92.006 110.136,-92.006c16.007,-0 31.225,3.12 44.966,8.732c24.105,9.846 43.667,27.36 54.978,49.147c5.376,9.971 9.253,21.351 10.188,34.084c0.304,3.061 0.46,6.16 0.46,9.293c0,2.819 -0.126,5.611 -0.373,8.372l-0.024,0c-0.503,5.465 -1.479,10.806 -2.891,15.991c-3.802,13.968 -10.763,26.793 -20.145,37.799c-6.27,7.355 -13.621,13.898 -21.833,19.427l-76.971,47.339l-18.817,-9.816l18.317,-11.265Z" style="fill:#011627;"/><path d="M29.244,160.298c-6.882,-8.266 -12.347,-17.603 -16.057,-27.695l169.542,-0l7.323,-6.374l-178.911,0.114c-2.273,-7.92 -3.484,-16.241 -3.484,-24.823l206.41,-0c0,53.023 -46.245,96.072 -103.205,96.072c-33.185,0 -62.733,-14.611 -81.618,-37.294Z" style="fill:url(#_Linear2);"/><path d="M206.188,64.663c3.885,8.689 6.439,18.022 7.423,27.776c0.302,2.989 0.456,6.018 0.456,9.081l-206.41,-0c-0,-53.024 46.244,-96.073 103.205,-96.073c40.291,-0 75.221,21.539 92.214,52.913l-103.874,-0l0,6.303l106.986,0Zm-165.788,27.666l58.802,-50.66l0.001,-9.083l-68.673,59.648l0.103,0.089l9.767,0.006Z" style="fill:url(#_Linear3);"/><path d="M0.985,111.21l-0.026,-0c-0.317,-3.119 -0.479,-6.28 -0.479,-9.474c0,-3.118 0.154,-6.203 0.456,-9.25c5.11,-51.556 52.504,-92.006 110.136,-92.006c44.088,0 82.185,23.672 99.944,57.88l-111.814,-0l0.001,-25.774l-68.673,59.648l0.103,0.089l190.57,0.121c0.305,3.06 0.461,6.16 0.461,9.292c-0,2.819 -0.126,5.611 -0.374,8.372l-0.023,0c-0.503,5.465 -1.479,10.807 -2.891,15.991c-3.802,13.968 -10.764,26.793 -20.145,37.799c-6.27,7.356 -13.621,13.899 -21.833,19.427l-76.972,47.339l-0.672,-28.354c-32.036,-3.263 -59.962,-19.104 -77.773,-42.012l100.502,-0l0.001,25.611l68.568,-59.68l-186.216,0.119c-1.353,-4.914 -2.314,-9.97 -2.851,-15.138Z" style="fill:#feefe5;"/><path id="red-shade" serif:id="red shade" d="M13.187,132.603c-0.756,-2.056 -1.439,-4.144 -2.046,-6.26l178.911,-0.114l-7.323,6.374l-169.542,-0Z" style="fill:#011627;"/><path id="blue-shade-2" serif:id="blue shade 2" d="M203.076,58.36c1.116,2.06 2.154,4.162 3.112,6.303l-106.986,0l0,-6.303l103.874,-0Z" style="fill:#011627;"/><path id="blue-shade-1" serif:id="blue shade 1" d="M40.4,92.329l-9.767,-0.006l-0.103,-0.089l68.673,-59.648l-0.001,9.083l-58.802,50.66Z" style="fill:#011627;"/></g><defs><linearGradient id="_Linear2" x1="0" y1="0" x2="1" y2="0" gradientUnits="userSpaceOnUse" gradientTransform="matrix(1.31524e-15,-21.4796,21.4796,1.31524e-15,115.566,160.153)"><stop offset="0" style="stop-color:#e71d36;stop-opacity:1"/><stop offset="1" style="stop-color:#9d0013;stop-opacity:1"/></linearGradient><linearGradient id="_Linear3" x1="0" y1="0" x2="1" y2="0" gradientUnits="userSpaceOnUse" gradientTransform="matrix(1.42844e-15,-23.3282,23.3282,1.42844e-15,119.664,89.3435)"><stop offset="0" style="stop-color:#53d8fb;stop-opacity:1"/><stop offset="1" style="stop-color:#00abd8;stop-opacity:1"/></linearGradient></defs></svg>